# xmcd
#
# Track frame offsets:
#	150
#	13990
#	25262
#	39397
#	54672
#	66292
#	81642
#	98922
#	114575
#	129792
#
# Disc length: 1873 seconds
#
# Revision: 3
# Processed by: cddbd v1.4PL0 Copyright (c) Steve Scherf et al.
# Submitted via: dBpowerAMP V4.0
#
DISCID=85074f0a
DTITLE=Ricky Van Shelton - Super Hits
DYEAR=1995
DGENRE=Country
TTITLE0=Ricky Van Shelton - Statue Of A Fool
TTITLE1=Ricky Van Shelton - I've Cried My Last Tear For You
TTITLE2=Ricky Van Shelton - I'll Leave This World Loving You
TTITLE3=Ricky Van Shelton - Life Turned Her That Way
TTITLE4=Ricky Van Shelton - Don't We All Have The Right
TTITLE5=Ricky Van Shelton - Crime Of Passion
TTITLE6=Ricky Van Shelton - Keep It Between The Lines
TTITLE7=Ricky Van Shelton - I Am A Simple Man
TTITLE8=Ricky Van Shelton - Somebody Lied
TTITLE9=Ricky Van Shelton - From A Jack To A King
EXTD=
EXTT0=
EXTT1=
EXTT2=
EXTT3=
EXTT4=
EXTT5=
EXTT6=
EXTT7=
EXTT8=
EXTT9=
PLAYORDER=
